:FULLY-SPECIFIED
:FORCE-ALL-JOINTS-BE-3DOF
:DEGREES
307
root 10.0162 16.7529 6.1858 7.37394 7.44989 5.10003
lfemur 13.7066 2.92769 -28.7047
ltibia 6.36111e-15 0 0
lfoot -14.6643 0.872805 0
ltoes 1.19895 0 0
rfemur -44.1939 18.1536 -0.849533
rtibia 25.2359 0 0
rfoot -32.8452 -19.8742 0
rtoes -21.3767 0 0
lowerback -8.02387 -4.9625 -6.90312
upperback -0.755937 -6.07315 1.90723
thorax 4.62974 -3.16703 5.0961
lowerneck -18.8571 -4.68291 -12.8086
upperneck 21.7683 -5.85366 12.2363
head 10.8954 -2.32653 5.74676
lclavicle -4.66647e-14 -3.18055e-15 0
lhumerus -11.9981 -35.5609 90.3238
lradius 37.2263 0 0
lwrist 17.6575 0 0
lhand -11.3006 -20.8009 0
lfingers 7.12502 0 0
lthumb 14.7309 8.6557 0
rclavicle -4.66647e-14 -3.18055e-15 0
rhumerus -49.7118 6.05712 -82.7475
rradius 34.614 0 0
rwrist -18.9952 0 0
rhand -28.2791 -27.186 0
rfingers 7.12502 0 0
rthumb -1.65544 -57.1593 0
308
root 10.0047 16.7292 6.35042 7.44265 7.63802 5.1009
lfemur 14.2275 2.98814 -28.4722
ltibia 1.35468e-14 0 0
lfoot -14.6882 0.637745 0
ltoes 0.573593 0 0
rfemur -44.211 17.6809 -0.5708
rtibia 24.9671 0 0
rfoot -32.6666 -19.8882 0
rtoes -21.0902 0 0
lowerback -8.11612 -4.97851 -6.92979
upperback -0.776322 -6.0863 1.90691
thorax 4.66433 -3.17427 5.10251
lowerneck -18.8133 -4.72915 -12.795
upperneck 21.7226 -5.93317 12.2664
head 10.8823 -2.35914 5.74137
lclavicle -4.67869e-14 1.19649e-16 0
lhumerus -12.34 -36.1921 90.7117
lradius 37.7609 0 0
lwrist 17.3805 0 0
lhand -10.9087 -20.9972 0
lfingers 7.12502 0 0
lthumb 15.1085 8.43264 0
rclavicle -4.67869e-14 1.19649e-16 0
rhumerus -49.7737 5.97373 -82.743
rradius 34.1943 0 0
rwrist -18.7861 0 0
rhand -28.1282 -26.5482 0
rfingers 7.12502 0 0
rthumb -1.50973 -56.5237 0
309
root 9.99317 16.7056 6.51504 7.50419 7.78752 5.02429
lfemur 14.751 3.09226 -28.149
ltibia 2.14393e-14 0 0
lfoot -14.6641 0.44573 0
ltoes -0.659658 0 0
rfemur -44.0231 16.532 0.30994
rtibia 24.6806 0 0
rfoot -31.9655 -19.4803 0
rtoes -20.1716 0 0
lowerback -8.21291 -4.97644 -6.88053
upperback -0.784916 -6.08207 1.91969
thorax 4.70506 -3.17207 5.082
lowerneck -18.8302 -4.77863 -12.7304
upperneck 21.7039 -6.02106 12.2694
head 10.8896 -2.39266 5.7165
lclavicle -4.58585e-14 5.77214e-15 0
lhumerus -12.6937 -36.8625 91.0889
lradius 38.2755 0 0
lwrist 17.02 0 0
lhand -10.5759 -21.2361 0
lfingers 7.12502 0 0
lthumb 15.4292 8.17073 0
rclavicle -4.58585e-14 5.77214e-15 0
rhumerus -49.7905 5.88349 -82.7626
rradius 33.7367 0 0
rwrist -18.5806 0 0
rhand -28.1002 -25.6058 0
rfingers 7.12502 0 0
rthumb -1.48266 -55.5818 0
310
root 9.98165 16.6819 6.67967 7.55946 7.91203 4.90884
lfemur 15.281 3.22154 -27.7723
ltibia 2.94201e-14 0 0
lfoot -14.5886 0.265379 0
ltoes -2.21465 0 0
rfemur -43.7117 14.9445 1.57437
rtibia 24.4374 0 0
rfoot -30.8972 -18.7502 0
rtoes -18.9871 0 0
lowerback -8.30653 -4.96322 -6.79251
upperback -0.787327 -6.06662 1.93678
thorax 4.74543 -3.16374 5.04602
lowerneck -18.8888 -4.83059 -12.6367
upperneck 21.7063 -6.11388 12.2554
head 10.912 -2.42676 5.6802
lclavicle -4.37202e-14 1.25732e-14 0
lhumerus -13.0714 -37.5363 91.4668
lradius 38.7677 0 0
lwrist 16.6001 0 0
lhand -10.2668 -21.5008 0
lfingers 7.12502 0 0
lthumb 15.727 7.88362 0
rclavicle -4.37202e-14 1.25732e-14 0
rhumerus -49.7814 5.78928 -82.7978
rradius 33.264 0 0
rwrist -18.3686 0 0
rhand -28.1544 -24.5258 0
rfingers 7.12502 0 0
rthumb -1.53505 -54.5012 0
311
root 9.97014 16.6582 6.84429 7.60934 8.02514 4.7932
lfemur 15.8218 3.35752 -27.3795
ltibia 3.68709e-14 0 0
lfoot -14.4585 0.0653097 0
ltoes -3.80521 0 0
rfemur -43.3584 13.1561 3.00417
rtibia 24.2987 0 0
rfoot -29.6168 -17.7973 0
rtoes -17.9029 0 0
lowerback -8.38928 -4.94575 -6.70291
upperback -0.789164 -6.04607 1.94938
thorax 4.77895 -3.15261 5.00599
lowerneck -18.9698 -4.88426 -12.5361
upperneck 21.7237 -6.20822 12.2349
head 10.9443 -2.46109 5.64051
lclavicle -4.02125e-14 1.9319e-14 0
lhumerus -13.4858 -38.1776 91.8573
lradius 39.2351 0 0
lwrist 16.1449 0 0
lhand -9.94577 -21.7747 0
lfingers 7.12502 0 0
lthumb 16.0361 7.58496 0
rclavicle -4.02125e-14 1.9319e-14 0
rhumerus -49.7661 5.69395 -82.8399
rradius 32.7993 0 0
rwrist -18.1399 0 0
rhand -28.2504 -23.4752 0
rfingers 7.12502 0 0
rthumb -1.62773 -53.4494 0
312
root 9.95862 16.6346 7.00891 7.65472 8.14046 4.71601
lfemur 16.3773 3.48169 -27.0081
ltibia 4.31731e-14 0 0
lfoot -14.2706 -0.18586 0
ltoes -5.1452 0 0
rfemur -43.0447 11.4043 4.38104
rtibia 24.3254 0 0
rfoot -28.2794 -16.7212 0
rtoes -17.2853 0 0
lowerback -8.45346 -4.93095 -6.64891
upperback -0.796035 -6.02658 1.9487
thorax 4.79914 -3.142 4.97335
lowerneck -19.0541 -4.9389 -12.4508
upperneck 21.7505 -6.30065 12.218
head 10.981 -2.49531 5.60548
lclavicle -3.5176e-14 2.48058e-14 0
lhumerus -13.9493 -38.7504 92.2719
lradius 39.6751 0 0
lwrist 15.6783 0 0
lhand -9.57739 -22.0412 0
lfingers 7.12502 0 0
lthumb 16.3907 7.2884 0
rclavicle -3.5176e-14 2.48058e-14 0
rhumerus -49.7639 5.60036 -82.88
rradius 32.3655 0 0
rwrist -17.8845 0 0
rhand -28.3474 -22.6209 0
rfingers 7.12502 0 0
rthumb -1.7215 -52.594 0
313
root 9.94711 16.6109 7.17353 7.6965 8.27162 4.71591
lfemur 16.9516 3.57557 -26.6952
ltibia 4.77083e-14 0 0
lfoot -14.0215 -0.519512 0
ltoes -5.94846 0 0
rfemur -42.8521 9.92662 5.48664
rtibia 24.5787 0 0
rfoot -27.0401 -15.6214 0
rtoes -17.5004 0 0
lowerback -8.49135 -4.92572 -6.66769
upperback -0.813547 -6.01429 1.92595
thorax 4.79951 -3.13523 4.95952
lowerneck -19.1227 -4.99374 -12.4028
upperneck 21.7805 -6.38774 12.2151
head 11.0169 -2.52908 5.58316
lclavicle -2.84511e-14 2.78299e-14 0
lhumerus -14.4744 -39.219 92.7222
lradius 40.0854 0 0
lwrist 15.2244 0 0
lhand -9.12611 -22.2835 0
lfingers 7.12502 0 0
lthumb 16.825 7.00758 0
rclavicle -2.84511e-14 2.78299e-14 0
rhumerus -49.7943 5.51138 -82.9096
rradius 31.9856 0 0
rwrist -17.5921 0 0
rhand -28.4051 -22.13 0
rfingers 7.12502 0 0
rthumb -1.77719 -52.1024 0
314
root 9.92778 16.582 7.35156 7.74402 8.42241 4.83315
lfemur 17.5416 3.63055 -26.4763
ltibia 5.09109e-14 0 0
lfoot -13.722 -0.971914 0
ltoes -5.99889 0 0
rfemur -42.7842 8.6374 6.34139
rtibia 25.1067 0 0
rfoot -25.9122 -14.3931 0
rtoes -18.8827 0 0
lowerback -8.49933 -4.93332 -6.79877
upperback -0.844938 -6.0096 1.86713
thorax 4.77718 -3.13284 4.97215
lowerneck -19.1873 -5.05455 -12.3888
upperneck 21.8334 -6.47659 12.2162
head 11.0621 -2.56614 5.56867
lclavicle -1.87453e-14 2.83434e-14 0
lhumerus -15.0792 -39.5775 93.2124
lradius 40.4866 0 0
lwrist 14.7745 0 0
lhand -8.53123 -22.5025 0
lfingers 7.12502 0 0
lthumb 17.3973 6.73556 0
rclavicle -1.87453e-14 2.83434e-14 0
rhumerus -49.8599 5.42168 -82.9339
rradius 31.6498 0 0
rwrist -17.2138 0 0
rhand -28.4261 -22.0898 0
rfingers 7.12502 0 0
rthumb -1.79752 -52.062 0
315
root 9.90845 16.553 7.52959 7.79843 8.58272 5.04487
lfemur 18.1434 3.6597 -26.3287
ltibia 5.33626e-14 0 0
lfoot -13.3768 -1.52521 0
ltoes -5.4822 0 0
rfemur -42.7765 7.32938 7.12403
rtibia 25.8702 0 0
rfoot -24.7741 -12.9357 0
rtoes -21.2062 0 0
lowerback -8.48283 -4.94887 -7.02031
upperback -0.886367 -6.00768 1.77647
thorax 4.73676 -3.13228 5.00363
lowerneck -19.2657 -5.1231 -12.3905
upperneck 21.9178 -6.57137 12.211
head 11.1228 -2.6075 5.55459
lclavicle -5.92768e-15 2.72998e-14 0
lhumerus -15.7574 -39.8535 93.7339
lradius 40.8849 0 0
lwrist 14.3078 0 0
lhand -7.80902 -22.7116 0
lfingers 7.12502 0 0
lthumb 18.092 6.46002 0
rclavicle -5.92768e-15 2.72998e-14 0
rhumerus -49.9456 5.3279 -82.9609
rradius 31.3379 0 0
rwrist -16.748 0 0
rhand -28.4436 -22.3841 0
rfingers 7.12502 0 0
rthumb -1.81437 -52.3562 0
316
root 9.88912 16.5241 7.70762 7.84834 8.74524 5.29504
lfemur 18.7599 3.67705 -26.2023
ltibia 5.46658e-14 0 0
lfoot -12.9737 -2.12961 0
ltoes -4.71493 0 0
rfemur -42.8084 6.05797 7.85372
rtibia 26.7992 0 0
rfoot -23.5791 -11.3551 0
rtoes -23.9963 0 0
lowerback -8.44776 -4.96709 -7.27745
upperback -0.93283 -6.00682 1.67253
thorax 4.68301 -3.13223 5.04249
lowerneck -19.3474 -5.19261 -12.4074
upperneck 22.0115 -6.66424 12.2094
head 11.1881 -2.64876 5.54518
lclavicle 8.41882e-15 2.49972e-14 0
lhumerus -16.4846 -40.0611 94.2796
lradius 41.2558 0 0
lwrist 13.8297 0 0
lhand -7.03942 -22.9133 0
lfingers 7.12502 0 0
lthumb 18.8322 6.18659 0
rclavicle 8.41882e-15 2.49972e-14 0
rhumerus -50.0445 5.23587 -82.986
rradius 31.0569 0 0
rwrist -16.2554 0 0
rhand -28.4622 -22.8748 0
rfingers 7.12502 0 0
rthumb -1.83232 -52.8468 0
317
root 9.86979 16.4951 7.88565 7.88237 8.90268 5.52763
lfemur 19.3941 3.69663 -26.0472
ltibia 5.44228e-14 0 0
lfoot -12.5006 -2.73531 0
ltoes -4.01363 0 0
rfemur -42.8592 4.87857 8.54964
rtibia 27.8237 0 0
rfoot -22.2802 -9.75712 0
rtoes -26.7782 0 0
lowerback -8.40001 -4.98269 -7.51534
upperback -0.979321 -6.0053 1.57387
thorax 4.62067 -3.1314 5.07727
lowerneck -19.4221 -5.2563 -12.4391
upperneck 22.0921 -6.74735 12.2215
head 11.2468 -2.68549 5.54467
lclavicle 2.27111e-14 2.17338e-14 0
lhumerus -17.2368 -40.2144 94.8422
lradius 41.5752 0 0
lwrist 13.3458 0 0
lhand -6.3024 -23.1098 0
lfingers 7.12502 0 0
lthumb 19.541 5.92085 0
rclavicle 2.27111e-14 2.17338e-14 0
rhumerus -50.1495 5.15139 -83.0047
rradius 30.8139 0 0
rwrist -15.7968 0 0
rhand -28.4866 -23.4236 0
rfingers 7.12502 0 0
rthumb -1.85594 -53.3954 0
318
root 9.85046 16.4661 8.06368 7.88912 9.04776 5.68663
lfemur 20.0489 3.73246 -25.8137
ltibia 5.22362e-14 0 0
lfoot -11.9453 -3.29252 0
ltoes -3.69484 0 0
rfemur -42.9083 3.8466 9.23098
rtibia 28.8737 0 0
rfoot -20.8306 -8.24781 0
rtoes -29.0774 0 0
lowerback -8.34549 -4.99038 -7.67911
upperback -1.02084 -6.00142 1.49904
thorax 4.55451 -3.12845 5.09653
lowerneck -19.4793 -5.30739 -12.4853
upperneck 22.1375 -6.81288 12.2572
head 11.2879 -2.71327 5.55731
lclavicle 3.53662e-14 1.78078e-14 0
lhumerus -17.9895 -40.3275 95.4144
lradius 41.8185 0 0
lwrist 12.8617 0 0
lhand -5.67791 -23.3035 0
lfingers 7.12502 0 0
lthumb 20.1416 5.66842 0
rclavicle 3.53662e-14 1.78078e-14 0
rhumerus -50.2535 5.08029 -83.0123
rradius 30.616 0 0
rwrist -15.4328 0 0
rhand -28.5217 -23.8925 0
rfingers 7.12502 0 0
rthumb -1.8898 -53.864 0
319
root 9.83113 16.4372 8.24171 7.8572 9.17318 5.71601
lfemur 20.7272 3.79858 -25.4517
ltibia 4.77083e-14 0 0
lfoot -11.2958 -3.75144 0
ltoes -4.0751 0 0
rfemur -42.935 3.01747 9.9169
rtibia 29.8792 0 0
rfoot -19.1833 -6.93302 0
rtoes -30.4191 0 0
lowerback -8.29009 -4.98488 -7.71391
upperback -1.05237 -5.99346 1.4666
thorax 4.48927 -3.12208 5.08879
lowerneck -19.5088 -5.3391 -12.5455
upperneck 22.1253 -6.85297 12.3264
head 11.3004 -2.7277 5.58736
lclavicle 4.48011e-14 1.35174e-14 0
lhumerus -18.7185 -40.4145 95.9892
lradius 41.9616 0 0
lwrist 12.383 0 0
lhand -5.24591 -23.4967 0
lfingers 7.12502 0 0
lthumb 20.5571 5.4349 0
rclavicle 4.48011e-14 1.35174e-14 0
rhumerus -50.3497 5.02837 -83.0043
rradius 30.4702 0 0
rwrist -15.2242 0 0
rhand -28.5721 -24.1432 0
rfingers 7.12502 0 0
rthumb -1.93846 -54.1142 0
